<svg width="1440" height="1024" viewBox="0 0 1440 1024" fill="none" xmlns="http://www.w3.org/2000/svg">
<g clip-path="url(#clip0_8052_9550)">
<rect width="1440" height="1024" fill="#03032A"/>
<g opacity="0.7" filter="url(#filter0_f_8052_9550)">
<ellipse cx="1091" cy="551.5" rx="349" ry="356.5" fill="#2B09C0"/>
</g>
<g opacity="0.2">
<path d="M149.867 80.9929C164.706 77.002 180.395 77.4994 194.952 82.4224C209.509 87.3453 222.28 96.4729 231.651 108.652C241.022 120.83 246.572 135.513 247.601 150.846C248.63 166.178 245.09 181.471 237.43 194.792C236.146 197.027 235.802 199.68 236.474 202.168C237.146 204.656 238.778 206.775 241.013 208.06C243.247 209.344 245.9 209.688 248.388 209.016C250.877 208.344 252.996 206.711 254.28 204.477C260.645 193.434 264.769 181.244 266.414 168.604C268.06 155.965 267.196 143.125 263.87 130.821C249.936 79.0035 196.638 48.295 144.821 62.2288C93.0037 76.1627 62.2951 129.461 76.229 181.278C79.5235 193.591 85.2152 205.133 92.9781 215.242C100.741 225.351 110.422 233.83 121.468 240.191C123.699 241.48 126.352 241.829 128.841 241.163C131.331 240.496 133.453 238.868 134.742 236.636C136.031 234.404 136.381 231.752 135.714 229.263C135.048 226.773 133.419 224.65 131.188 223.361C117.879 215.679 107.147 204.223 100.348 190.443C93.5478 176.662 90.9855 161.176 92.9845 145.94C94.9835 130.703 101.454 116.402 111.579 104.842C121.703 93.2821 135.027 84.9828 149.867 80.9929Z" fill="url(#paint0_linear_8052_9550)" fill-opacity="0.3"/>
<path d="M165.002 137.285C169.979 135.946 175.283 136.64 179.749 139.213C184.214 141.785 187.474 146.026 188.812 151.003C190.151 155.979 189.457 161.284 186.884 165.749C184.312 170.214 180.071 173.475 175.094 174.813C170.117 176.151 164.813 175.457 160.348 172.885C155.883 170.312 152.622 166.071 151.284 161.094C149.946 156.118 150.639 150.814 153.212 146.348C155.785 141.883 160.026 138.623 165.002 137.285Z" fill="url(#paint1_linear_8052_9550)" fill-opacity="0.3"/>
<path d="M207.577 145.956C205.919 139.783 202.763 134.115 198.391 129.454C194.018 124.792 188.564 121.281 182.51 119.231C176.456 117.181 169.99 116.656 163.685 117.702C157.38 118.749 151.43 121.334 146.363 125.229C141.295 129.124 137.267 134.209 134.635 140.033C132.002 145.857 130.847 152.241 131.271 158.618C131.695 164.995 133.685 171.17 137.066 176.594C140.446 182.018 145.112 186.525 150.651 189.715C151.757 190.352 152.727 191.201 153.505 192.213C154.283 193.225 154.854 194.38 155.185 195.613C155.517 196.846 155.602 198.132 155.437 199.398C155.271 200.663 154.858 201.884 154.221 202.99C152.934 205.224 150.812 206.855 148.322 207.525C147.09 207.856 145.804 207.942 144.538 207.776C143.272 207.611 142.051 207.197 140.945 206.56C130.955 200.805 122.896 192.216 117.788 181.881C112.679 171.545 110.75 159.927 112.244 148.495C113.739 137.063 118.59 126.331 126.184 117.656C133.778 108.981 143.774 102.752 154.907 99.7584C166.041 96.7645 177.813 97.1394 188.733 100.836C199.654 104.532 209.233 111.384 216.26 120.524C223.286 129.665 227.445 140.684 228.209 152.188C228.973 163.692 226.308 175.164 220.552 185.154C219.915 186.259 219.066 187.228 218.054 188.005C217.042 188.783 215.886 189.353 214.654 189.684C213.422 190.015 212.136 190.1 210.871 189.934C209.605 189.768 208.385 189.355 207.28 188.717C206.174 188.08 205.205 187.231 204.428 186.219C203.65 185.207 203.08 184.052 202.749 182.819C202.418 181.587 202.333 180.301 202.499 179.036C202.665 177.771 203.078 176.551 203.716 175.445C206.272 171.027 207.929 166.147 208.592 161.086C209.254 156.025 208.91 150.883 207.577 145.956Z" fill="url(#paint2_linear_8052_9550)" fill-opacity="0.3"/>
</g>
</g>
<defs>
<filter id="filter0_f_8052_9550" x="-58" y="-605" width="2298" height="2313" filterUnits="userSpaceOnUse" color-interpolation-filters="sRGB">
<feFlood flood-opacity="0" result="BackgroundImageFix"/>
<feBlend mode="normal" in="SourceGraphic" in2="BackgroundImageFix" result="shape"/>
<feGaussianBlur stdDeviation="400" result="effect1_foregroundBlur_8052_9550"/>
</filter>
<linearGradient id="paint0_linear_8052_9550" x1="144.821" y1="62.2288" x2="188.615" y2="225.089" gradientUnits="userSpaceOnUse">
<stop stop-color="white"/>
<stop offset="1" stop-color="white" stop-opacity="0"/>
</linearGradient>
<linearGradient id="paint1_linear_8052_9550" x1="165.002" y1="137.285" x2="175.094" y2="174.813" gradientUnits="userSpaceOnUse">
<stop stop-color="white"/>
<stop offset="1" stop-color="white" stop-opacity="0"/>
</linearGradient>
<linearGradient id="paint2_linear_8052_9550" x1="154.907" y1="99.7584" x2="181.488" y2="198.606" gradientUnits="userSpaceOnUse">
<stop stop-color="white"/>
<stop offset="1" stop-color="white" stop-opacity="0"/>
</linearGradient>
<clipPath id="clip0_8052_9550">
<rect width="1440" height="1024" fill="white"/>
</clipPath>
</defs>
</svg>
