<svg width="169" height="57" viewBox="0 0 169 57" fill="none" xmlns="http://www.w3.org/2000/svg">
<rect x="0.523926" y="0.386719" width="167.524" height="56" rx="14" fill="white" fill-opacity="0.07"/>
<path d="M19.5416 15.3652C19.1748 15.8169 18.9906 16.3908 19.0257 16.9728V42.2529C18.9826 42.8438 19.1674 43.4286 19.5416 43.8864L19.6318 43.9771L33.7029 29.7943V29.4573L19.6318 15.3652H19.5416Z" fill="url(#paint0_linear_8052_4420)"/>
<path d="M38.3844 34.513L33.7026 29.794V29.457L38.3844 24.751H38.4876L44.0464 27.9272C44.3893 28.0432 44.6874 28.2645 44.8986 28.5599C45.1098 28.8553 45.2233 29.2099 45.2233 29.5736C45.2233 29.9374 45.1098 30.292 44.8986 30.5874C44.6874 30.8827 44.3893 31.1041 44.0464 31.2201L38.4876 34.3963L38.3844 34.513Z" fill="url(#paint1_linear_8052_4420)"/>
<path d="M38.4877 34.4486L33.7028 29.626L19.5156 43.8865C19.8379 44.175 20.2505 44.3407 20.6817 44.3549C21.113 44.3691 21.5355 44.2309 21.8759 43.9643L38.4619 34.4875" fill="url(#paint2_linear_8052_4420)"/>
<path d="M38.4864 24.8027L21.9003 15.3648C21.5678 15.0898 21.1507 14.9395 20.7202 14.9395C20.2896 14.9395 19.8725 15.0898 19.54 15.3648L33.7272 29.6253L38.4864 24.8027Z" fill="url(#paint3_linear_8052_4420)"/>
<path opacity="0.2" d="M38.3832 34.3438L21.9003 43.7557C21.5726 44.0019 21.1744 44.1349 20.7653 44.1349C20.3562 44.1349 19.958 44.0019 19.6303 43.7557L19.54 43.8854L19.6303 43.9761C19.958 44.2223 20.3562 44.3553 20.7653 44.3553C21.1744 44.3553 21.5726 44.2223 21.9003 43.9761L38.4864 34.4993L38.3832 34.3438Z" fill="black"/>
<path opacity="0.12" d="M19.5416 43.6796C19.1768 43.2318 18.9926 42.6627 19.0257 42.085V42.2535C18.9826 42.8444 19.1674 43.4292 19.5416 43.887L19.6318 43.8092L19.5416 43.6796Z" fill="black"/>
<path opacity="0.12" d="M44.0462 31.1039L38.3843 34.3449L38.4875 34.4486L44.0462 31.2724C44.3742 31.1307 44.6584 30.9032 44.8694 30.6136C45.0803 30.3241 45.2103 29.9831 45.2457 29.626C45.1741 29.9492 45.0283 30.2511 44.8201 30.5077C44.6119 30.7643 44.3469 30.9685 44.0462 31.1039Z" fill="black"/>
<path opacity="0.25" d="M21.9015 15.4952L44.0464 28.1482C44.3459 28.2853 44.6099 28.49 44.8179 28.7463C45.0259 29.0026 45.1724 29.3037 45.2459 29.6261C45.2104 29.269 45.0805 28.928 44.8695 28.6385C44.6586 28.3489 44.3744 28.1215 44.0464 27.9797L21.9015 15.3656C20.3151 14.4581 19.0254 15.21 19.0254 17.0379V17.1935C19.0254 15.3656 20.3151 14.6007 21.9015 15.4952Z" fill="white"/>
<path d="M60.4905 18.169C60.5111 18.5865 60.4474 19.0038 60.3034 19.396C60.1593 19.7881 59.9378 20.1469 59.6521 20.4507C59.3295 20.7878 58.9401 21.0531 58.5091 21.2295C58.0782 21.4059 57.6152 21.4895 57.15 21.4748C56.6822 21.4783 56.2184 21.388 55.7857 21.2093C55.3529 21.0305 54.96 20.7669 54.6298 20.4338C54.2996 20.1007 54.0387 19.7047 53.8625 19.2691C53.6862 18.8335 53.5981 18.367 53.6032 17.8967C53.6009 17.306 53.7446 16.7239 54.0216 16.2028C54.2985 15.6817 54.6999 15.2379 55.1897 14.9114C55.6795 14.5849 56.2424 14.3858 56.8277 14.3321C57.413 14.2784 58.0024 14.3718 58.543 14.6038C58.9537 14.7724 59.3201 15.0342 59.6134 15.3687L59.0073 15.9651C58.778 15.699 58.4919 15.4885 58.1703 15.3493C57.8487 15.2101 57.4999 15.1458 57.15 15.1613C56.7936 15.1518 56.4391 15.2166 56.1089 15.3518C55.7787 15.4869 55.4799 15.6894 55.2315 15.9464C54.9831 16.2035 54.7903 16.5095 54.6655 16.8452C54.5406 17.1809 54.4863 17.5389 54.5061 17.8967C54.4863 18.2546 54.5406 18.6126 54.6655 18.9483C54.7903 19.284 54.9831 19.59 55.2315 19.847C55.4799 20.1041 55.7787 20.3065 56.1089 20.4417C56.4391 20.5768 56.7936 20.6417 57.15 20.6322C57.4947 20.6359 57.8367 20.5701 58.1557 20.4387C58.4747 20.3074 58.7642 20.1131 59.0073 19.8673C59.3609 19.4915 59.5631 18.9972 59.5747 18.4801H57.15V17.6374H60.4518C60.4776 17.8134 60.4905 17.9911 60.4905 18.169Z" fill="white" stroke="white" stroke-width="0.150433" stroke-miterlimit="10"/>
<path d="M65.7273 15.3033H62.6319V17.4813H65.4564V18.2981H62.6319V20.476H65.7273V21.3187H61.7549V14.4736H65.7273V15.3033Z" fill="white" stroke="white" stroke-width="0.150433" stroke-miterlimit="10"/>
<path d="M69.4165 21.3187H68.5395V15.3033H66.6436V14.4736H71.3253V15.3033H69.4165V21.3187Z" fill="white" stroke="white" stroke-width="0.150433" stroke-miterlimit="10"/>
<path d="M74.7036 21.3187V14.4736H75.5806V21.3187H74.7036Z" fill="white" stroke="white" stroke-width="0.150433" stroke-miterlimit="10"/>
<path d="M79.4634 21.3187H78.5864V15.3033H76.6904V14.4736H81.3722V15.3033H79.4634V21.3187Z" fill="white" stroke="white" stroke-width="0.150433" stroke-miterlimit="10"/>
<path d="M90.2315 20.4242C89.9052 20.7562 89.5166 21.0198 89.0882 21.1997C88.6598 21.3796 88.2002 21.4723 87.7359 21.4723C87.2716 21.4723 86.8119 21.3796 86.3835 21.1997C85.9551 21.0198 85.5665 20.7562 85.2402 20.4242C84.9038 20.0851 84.6408 19.6797 84.4677 19.2335C84.2946 18.7873 84.2151 18.3099 84.2342 17.8314C84.2151 17.3529 84.2946 16.8755 84.4677 16.4293C84.6408 15.9831 84.9038 15.5777 85.2402 15.2386C85.5593 14.8995 85.9459 14.6319 86.3748 14.4531C86.8037 14.2744 87.2653 14.1887 87.7294 14.2014C88.1951 14.1917 88.6577 14.2787 89.0883 14.4572C89.5189 14.6357 89.9081 14.9017 90.2315 15.2386C90.5654 15.5795 90.8268 15.9853 90.9998 16.431C91.1727 16.8768 91.2536 17.3532 91.2375 17.8314C91.2567 18.3099 91.1772 18.7873 91.0041 19.2335C90.831 19.6797 90.568 20.0851 90.2315 20.4242ZM85.8851 19.8538C86.1255 20.1028 86.4132 20.3007 86.7311 20.4358C87.0491 20.5709 87.3907 20.6406 87.7359 20.6406C88.0811 20.6406 88.4227 20.5709 88.7406 20.4358C89.0585 20.3007 89.3462 20.1028 89.5867 19.8538C89.8386 19.5962 90.036 19.2899 90.1668 18.9534C90.2976 18.6169 90.3591 18.2573 90.3476 17.8962C90.3594 17.5332 90.298 17.1715 90.1672 16.8329C90.0365 16.4943 89.839 16.1857 89.5867 15.9257C89.3462 15.6767 89.0585 15.4788 88.7406 15.3437C88.4227 15.2085 88.0811 15.1389 87.7359 15.1389C87.3907 15.1389 87.0491 15.2085 86.7311 15.3437C86.4132 15.4788 86.1255 15.6767 85.8851 15.9257C85.6328 16.1857 85.4353 16.4943 85.3045 16.8329C85.1738 17.1715 85.1124 17.5332 85.1242 17.8962C85.1127 18.2573 85.1742 18.6169 85.305 18.9534C85.4358 19.2899 85.6331 19.5962 85.8851 19.8538Z" fill="white" stroke="white" stroke-width="0.150433" stroke-miterlimit="10"/>
<path d="M92.4648 21.3187V14.4736H93.5353L96.8371 19.7889V18.4925V14.4736H97.7012V21.3187H96.7984L93.3419 15.7312V17.0276V21.2928L92.4648 21.3187Z" fill="white" stroke="white" stroke-width="0.150433" stroke-miterlimit="10"/>
<path d="M84.5971 31.0289C83.6411 31.0315 82.7072 31.3188 81.9136 31.8545C81.1199 32.3903 80.502 33.1504 80.1379 34.039C79.7738 34.9276 79.6799 35.9046 79.868 36.8468C80.056 37.789 80.5177 38.6541 81.1946 39.3327C81.8715 40.0113 82.7333 40.473 83.6712 40.6595C84.609 40.8461 85.5808 40.7491 86.4638 40.3807C87.3468 40.0124 88.1014 39.3893 88.6323 38.5901C89.1632 37.7909 89.4465 36.8514 89.4465 35.8905C89.4552 35.2485 89.3357 34.6114 89.0949 34.0167C88.8541 33.4221 88.497 32.8821 88.0448 32.4287C87.5925 31.9753 87.0544 31.6178 86.4621 31.3774C85.8699 31.1369 85.2357 31.0184 84.5971 31.0289ZM84.5971 38.8074C84.0076 38.8517 83.4185 38.7164 82.9066 38.4191C82.3948 38.1218 81.984 37.6764 81.7278 37.1409C81.4716 36.6054 81.3819 36.0047 81.4704 35.4172C81.5589 34.8297 81.8215 34.2826 82.224 33.8474C82.6264 33.4122 83.1501 33.109 83.7265 32.9774C84.303 32.8458 84.9056 32.8919 85.4556 33.1097C86.0056 33.3274 86.4775 33.7068 86.8098 34.1982C87.1421 34.6896 87.3194 35.2703 87.3184 35.8645C87.3393 36.2404 87.2849 36.6166 87.1584 36.971C87.032 37.3253 86.8361 37.6505 86.5823 37.9274C86.3285 38.2042 86.0221 38.427 85.6811 38.5826C85.3401 38.7383 84.9715 38.8235 84.5971 38.8333V38.8074ZM74.0212 31.0289C73.0681 31.0442 72.1407 31.3424 71.3556 31.8858C70.5704 32.4292 69.9626 33.1937 69.6084 34.0833C69.2541 34.9729 69.1693 35.9478 69.3646 36.8857C69.5599 37.8236 70.0265 38.6825 70.7059 39.3547C71.3853 40.0268 72.2471 40.4822 73.1831 40.6635C74.1191 40.8449 75.0876 40.7442 75.9669 40.3741C76.8461 40.0039 77.597 39.3809 78.1251 38.5832C78.6532 37.7854 78.935 36.8487 78.9351 35.8905C78.9441 35.2429 78.8226 34.6003 78.5778 34.0012C78.3331 33.4022 77.9702 32.8592 77.511 32.4049C77.0518 31.9506 76.5059 31.5945 75.9061 31.358C75.3064 31.1216 74.6652 31.0096 74.0212 31.0289ZM74.0212 38.8074C73.432 38.8491 72.844 38.7114 72.3338 38.4124C71.8235 38.1134 71.4147 37.6668 71.1605 37.1309C70.9063 36.595 70.8185 35.9946 70.9087 35.4079C70.9988 34.8211 71.2626 34.2753 71.6657 33.8414C72.0689 33.4075 72.5926 33.1057 73.1689 32.9752C73.7451 32.8448 74.347 32.8918 74.8962 33.1102C75.4455 33.3285 75.9166 33.708 76.2482 34.1993C76.5798 34.6906 76.7566 35.2709 76.7555 35.8645C76.7763 36.2415 76.7215 36.6187 76.5942 36.9739C76.467 37.3291 76.2699 37.6549 76.0148 37.9319C75.7597 38.2089 75.4517 38.4315 75.1092 38.5864C74.7667 38.7412 74.3967 38.8252 74.0212 38.8333V38.8074ZM61.4462 32.4939V34.5552H66.3472C66.2789 35.5204 65.8881 36.4342 65.238 37.148C64.7445 37.6495 64.1524 38.0422 63.4996 38.3011C62.8468 38.56 62.1475 38.6794 61.4462 38.6518C60.0468 38.5834 58.7273 37.9764 57.761 36.9567C56.7948 35.937 56.2558 34.5827 56.2558 33.1745C56.2558 31.7662 56.7948 30.4119 57.761 29.3922C58.7273 28.3725 60.0468 27.7656 61.4462 27.6971C62.819 27.6818 64.1432 28.2077 65.1349 29.1621L66.5794 27.736C65.9 27.0627 65.0937 26.5324 64.2079 26.1762C63.322 25.82 62.3744 25.6451 61.4204 25.6618C60.4093 25.6196 59.4002 25.7834 58.4538 26.1432C57.5073 26.5031 56.6429 27.0516 55.9127 27.7558C55.1825 28.4599 54.6015 29.3053 54.2045 30.2409C53.8076 31.1766 53.603 32.1832 53.603 33.2004C53.603 34.2176 53.8076 35.2242 54.2045 36.1599C54.6015 37.0956 55.1825 37.9409 55.9127 38.6451C56.6429 39.3492 57.5073 39.8977 58.4538 40.2576C59.4002 40.6175 60.4093 40.7812 61.4204 40.7391C62.3964 40.7813 63.3701 40.6148 64.2772 40.2505C65.1844 39.8862 66.0042 39.3325 66.6826 38.6259C67.8771 37.313 68.5115 35.5814 68.4495 33.8032C68.4528 33.3689 68.4182 32.9351 68.3463 32.5068L61.4462 32.4939ZM112.894 34.0885C112.598 33.2119 112.043 32.447 111.303 31.8957C110.564 31.3444 109.674 31.033 108.754 31.003C108.133 31.0074 107.52 31.1383 106.95 31.3878C106.381 31.6373 105.868 32.0003 105.443 32.4547C105.017 32.9092 104.688 33.4456 104.474 34.0317C104.261 34.6178 104.168 35.2413 104.201 35.8645C104.189 36.5019 104.305 37.1351 104.541 37.7265C104.778 38.3179 105.131 38.8553 105.578 39.3066C106.026 39.7579 106.56 40.1139 107.148 40.3534C107.735 40.5928 108.365 40.7107 108.999 40.7002C109.794 40.7015 110.577 40.5059 111.279 40.1305C111.981 39.7552 112.58 39.2117 113.023 38.5481L111.372 37.4462C111.118 37.8468 110.767 38.176 110.352 38.4028C109.937 38.6296 109.471 38.7465 108.999 38.7426C108.505 38.7612 108.018 38.6302 107.599 38.3667C107.181 38.1031 106.85 37.7192 106.652 37.2647L113.1 34.5811L112.894 34.0885ZM106.303 35.709C106.283 35.3519 106.333 34.9942 106.453 34.6571C106.572 34.3201 106.757 34.0106 106.998 33.747C107.239 33.4834 107.529 33.271 107.853 33.1226C108.177 32.9741 108.527 32.8926 108.883 32.8828C109.249 32.8581 109.614 32.942 109.932 33.1241C110.251 33.3062 110.51 33.5784 110.676 33.907L106.303 35.709ZM101.054 40.4409H103.182V26.1803H101.054V40.4409ZM97.5848 32.1179H97.5074C97.1808 31.7604 96.7812 31.478 96.3361 31.2901C95.8909 31.1021 95.4105 31.0131 94.9279 31.0289C93.6901 31.0932 92.524 31.6328 91.6705 32.5363C90.8169 33.4397 90.3411 34.6381 90.3411 35.884C90.3411 37.1299 90.8169 38.3283 91.6705 39.2317C92.524 40.1352 93.6901 40.6748 94.9279 40.7391C95.4119 40.7559 95.8936 40.666 96.3392 40.4756C96.7849 40.2853 97.1836 39.999 97.5074 39.6371H97.5848V40.3372C97.6388 40.7021 97.6115 41.0744 97.5048 41.4274C97.3981 41.7803 97.2147 42.105 96.9678 42.378C96.7209 42.6509 96.4168 42.8653 96.0774 43.0056C95.738 43.146 95.3718 43.2087 95.0053 43.1893C94.473 43.1771 93.9564 43.0052 93.5221 42.6956C93.0877 42.386 92.7553 41.953 92.5677 41.4521L90.7234 42.2299C91.0724 43.0816 91.6664 43.8092 92.4292 44.3196C93.192 44.83 94.089 45.1 95.0053 45.095C97.4816 45.095 99.5968 43.6301 99.5968 40.039V31.3271H97.5848V32.1179ZM95.1472 38.8333C94.4181 38.7645 93.7409 38.4247 93.2479 37.8804C92.7549 37.3361 92.4817 36.6265 92.4817 35.8905C92.4817 35.1544 92.7549 34.4448 93.2479 33.9006C93.7409 33.3563 94.4181 33.0165 95.1472 32.9476C95.5117 32.9655 95.8689 33.0569 96.1975 33.2164C96.5262 33.3759 96.8196 33.6002 97.0602 33.8759C97.3009 34.1517 97.4839 34.4733 97.5984 34.8216C97.7129 35.1699 97.7565 35.5378 97.7267 35.9034C97.7565 36.2677 97.7128 36.6343 97.598 36.9811C97.4832 37.328 97.2998 37.6479 97.0588 37.9216C96.8179 38.1953 96.5243 38.4172 96.1957 38.5739C95.8672 38.7306 95.5105 38.8188 95.1472 38.8333ZM122.786 26.1803H117.756V40.4409H119.872V35.0348H122.786C123.385 35.0674 123.984 34.977 124.546 34.7693C125.109 34.5615 125.623 34.2406 126.058 33.8263C126.493 33.412 126.84 32.9129 127.077 32.3595C127.314 31.8061 127.436 31.21 127.436 30.6076C127.436 30.0052 127.314 29.409 127.077 28.8556C126.84 28.3022 126.493 27.8031 126.058 27.3888C125.623 26.9745 125.109 26.6537 124.546 26.4459C123.984 26.2381 123.385 26.1478 122.786 26.1803ZM122.786 33.0513H119.872V28.1638H122.89C123.224 28.1394 123.559 28.1844 123.875 28.2961C124.191 28.4078 124.481 28.5838 124.727 28.8131C124.972 29.0425 125.168 29.3202 125.301 29.6289C125.435 29.9376 125.504 30.2708 125.504 30.6076C125.504 30.9444 125.435 31.2775 125.301 31.5863C125.168 31.895 124.972 32.1727 124.727 32.402C124.481 32.6313 124.191 32.8073 123.875 32.9191C123.559 33.0308 123.224 33.0758 122.89 33.0513H122.786ZM135.877 31.003C135.104 30.9594 134.334 31.1434 133.663 31.5326C132.992 31.9217 132.448 32.499 132.098 33.1939L133.981 33.9847C134.166 33.6388 134.448 33.355 134.792 33.1683C135.136 32.9817 135.527 32.9005 135.916 32.9346C136.191 32.8889 136.472 32.9008 136.743 32.9695C137.013 33.0381 137.266 33.1621 137.486 33.3337C137.707 33.5053 137.89 33.7208 138.023 33.9667C138.157 34.2125 138.239 34.4835 138.263 34.7626V34.9182C137.586 34.5504 136.828 34.3588 136.058 34.3607C134.033 34.3607 131.969 35.4886 131.969 37.5758C131.991 38.0131 132.098 38.4417 132.286 38.8365C132.474 39.2314 132.739 39.5847 133.064 39.8756C133.39 40.1665 133.77 40.3893 134.182 40.5308C134.594 40.6724 135.03 40.73 135.465 40.7002C135.998 40.7319 136.53 40.62 137.006 40.3762C137.482 40.1324 137.885 39.7654 138.173 39.313V40.415H140.224V34.9571C140.235 34.4077 140.131 33.862 139.918 33.3561C139.704 32.8501 139.387 32.3954 138.986 32.0218C138.585 31.6482 138.11 31.3642 137.592 31.1886C137.074 31.013 136.525 30.9497 135.98 31.003H135.877ZM135.619 38.7815C134.923 38.7815 133.956 38.4315 133.956 37.5758C133.956 36.4739 135.168 36.046 136.2 36.046C136.875 36.0334 137.542 36.1988 138.134 36.5257C138.064 37.1387 137.779 37.7066 137.33 38.1272C136.881 38.5478 136.297 38.7935 135.684 38.8204L135.619 38.7815ZM147.64 31.2752L145.202 37.4591L142.623 31.2752H140.34L144.119 39.9223L141.965 44.732H144.183L150 31.2752H147.64ZM128.552 40.3501H130.667V26.0896H128.655L128.552 40.3501Z" fill="white"/>
<defs>
<linearGradient id="paint0_linear_8052_4420" x1="32.4519" y1="16.7394" x2="13.304" y2="35.8016" gradientUnits="userSpaceOnUse">
<stop stop-color="#00A0FF"/>
<stop offset="0.01" stop-color="#00A1FF"/>
<stop offset="0.26" stop-color="#00BEFF"/>
<stop offset="0.51" stop-color="#00D2FF"/>
<stop offset="0.76" stop-color="#00DFFF"/>
<stop offset="1" stop-color="#00E3FF"/>
</linearGradient>
<linearGradient id="paint1_linear_8052_4420" x1="46.11" y1="29.6255" x2="18.6384" y2="29.6255" gradientUnits="userSpaceOnUse">
<stop stop-color="#FFE000"/>
<stop offset="0.41" stop-color="#FFBD00"/>
<stop offset="0.78" stop-color="#FFA500"/>
<stop offset="1" stop-color="#FF9C00"/>
</linearGradient>
<linearGradient id="paint2_linear_8052_4420" x1="35.8825" y1="32.2447" x2="9.91554" y2="58.0909" gradientUnits="userSpaceOnUse">
<stop stop-color="#FF3A44"/>
<stop offset="1" stop-color="#C31162"/>
</linearGradient>
<linearGradient id="paint3_linear_8052_4420" x1="15.9803" y1="7.0029" x2="27.583" y2="18.533" gradientUnits="userSpaceOnUse">
<stop stop-color="#32A071"/>
<stop offset="0.07" stop-color="#2DA771"/>
<stop offset="0.48" stop-color="#15CF74"/>
<stop offset="0.8" stop-color="#06E775"/>
<stop offset="1" stop-color="#00F076"/>
</linearGradient>
</defs>
</svg>
